<svg width="auto" height="auto" viewBox="0 0 466 130" fill="none" xmlns="http://www.w3.org/2000/svg">
    <path d="M182.43 38.8401H185.65V47.1901H195.41V38.8401H198.6V59.0501H195.41V50.1801H185.65V59.0501H182.46L182.43 38.8401Z" fill="#158285"/>
    <path d="M215.87 58.6499C213.754 59.049 211.611 59.2897 209.46 59.3699C205.52 59.3699 203.16 57.7999 203.16 53.9899V44.9899H206.35C206.35 47.8299 206.35 50.54 206.35 53.39C206.35 55.63 207.52 56.25 209.59 56.25C210.597 56.2351 211.6 56.1347 212.59 55.95V44.95H215.81L215.87 58.6499Z" fill="#158285"/>
    <path d="M240.65 49.9499V59.0499H237.43C237.43 56.2099 237.43 53.3899 237.43 50.5499C237.43 48.8099 236.83 47.6799 234.51 47.6799C233.578 47.712 232.67 47.9804 231.87 48.4599C231.985 49.0262 232.045 49.6022 232.05 50.1799V59.0499H228.83V50.5499C228.83 48.4599 227.66 47.6799 225.83 47.6799C224.974 47.7019 224.123 47.8125 223.29 48.0099V59.0099H220.08V45.2699C222.025 44.8798 223.998 44.6458 225.98 44.5699C227.487 44.4897 228.978 44.9118 230.22 45.7699C231.565 44.986 233.093 44.572 234.65 44.5699C238.24 44.5699 240.65 46.0599 240.65 49.9499Z" fill="#158285"/>
    <path d="M256.43 49.9801V58.4001C254.398 58.9534 252.306 59.2556 250.2 59.3001C245.89 59.3001 243.52 57.6301 243.52 54.5101C243.52 51.5101 245.76 49.8501 249.87 49.8501C251.004 49.8667 252.136 49.9502 253.26 50.1001V50.0201C253.26 48.3301 251.97 47.3301 249.4 47.3301C247.754 47.341 246.124 47.6528 244.59 48.2501L245.34 45.3101C246.872 44.7584 248.492 44.4873 250.12 44.5101C253.84 44.4901 256.43 46.1101 256.43 49.9801ZM250.22 56.4301C251.228 56.4241 252.233 56.3169 253.22 56.1101V52.7901C252.228 52.6263 251.225 52.5327 250.22 52.5101C247.86 52.5101 246.76 53.1401 246.76 54.5101C246.76 55.8801 247.86 56.4301 250.22 56.4301Z" fill="#158285"/>
    <path d="M260.39 45.2701C262.497 44.8864 264.629 44.6525 266.77 44.5701C270.21 44.5701 273.07 45.7901 273.07 49.9301C273.07 52.9301 273.07 56.0101 273.07 59.0501H269.85V50.5501C269.85 48.4301 268.66 47.6801 266.59 47.6801C265.583 47.696 264.58 47.7964 263.59 47.9801V59.0501H260.4L260.39 45.2701Z" fill="#158285"/>
    <path d="M288.92 50.9001H285.21V59.0501H282.02V38.8401H289.81C294.87 38.8401 296.97 41.2801 296.97 44.7201C297.03 46.1152 296.579 47.4843 295.703 48.5718C294.828 49.6593 293.586 50.3909 292.21 50.6301L297.49 59.0301H293.98L288.92 50.9001ZM285.21 48.1101H290.06C292.36 48.1101 293.78 46.9401 293.78 44.8701C293.78 42.8701 292.33 41.8701 290.06 41.8701H285.21V48.1101Z" fill="#158285"/>
    <path d="M312.65 53.07H301.85C302.002 54.0963 302.539 55.026 303.354 55.6691C304.168 56.3122 305.197 56.6201 306.23 56.53C307.749 56.5574 309.25 56.196 310.59 55.48L311.94 57.98C310.104 58.912 308.069 59.3823 306.01 59.35C305.016 59.416 304.02 59.2693 303.088 58.9195C302.155 58.5697 301.308 58.025 300.603 57.3218C299.898 56.6185 299.351 55.7729 298.998 54.8413C298.646 53.9098 298.497 52.9139 298.56 51.92C298.56 47.45 301.47 44.46 305.83 44.46C309.95 44.46 312.66 47.31 312.66 51.57L312.65 53.07ZM301.86 50.35H309.54C309.34 48.43 307.92 47.26 305.75 47.26C304.832 47.1867 303.92 47.4652 303.2 48.0389C302.48 48.6127 302.004 49.4388 301.87 50.35H301.86Z" fill="#158285"/>
    <path d="M313.96 58.1501L314.8 55.63C316.315 56.2752 317.943 56.615 319.59 56.63C321.59 56.63 322.88 56.3401 322.88 55.1401C322.88 53.9401 322.4 53.84 320.04 53.22L318.77 52.9001C315.7 52.1201 314.33 50.75 314.33 48.46C314.33 45.97 316.42 44.46 319.94 44.46C321.869 44.4074 323.783 44.819 325.52 45.66L324.62 48.1701C323.272 47.5317 321.802 47.1907 320.31 47.1701C318.64 47.1701 317.65 47.49 317.65 48.46C317.65 49.43 318.47 49.71 320.39 50.21L321.39 50.4801C324.65 51.3301 326 52.72 326 54.96C326 57.86 323.95 59.35 319.87 59.35C317.836 59.3819 315.82 58.9725 313.96 58.1501Z" fill="#158285"/>
    <path d="M327.59 51.9699C327.576 50.9683 327.765 49.9743 328.147 49.0481C328.528 48.1219 329.094 47.2828 329.809 46.5815C330.524 45.8803 331.374 45.3316 332.308 44.9686C333.241 44.6056 334.239 44.436 335.24 44.4699C336.245 44.4319 337.246 44.5984 338.184 44.9593C339.123 45.3202 339.978 45.8679 340.698 46.5693C341.418 47.2707 341.988 48.111 342.373 49.0394C342.759 49.9678 342.952 50.9648 342.94 51.9699C342.94 56.2599 339.65 59.3499 335.24 59.3699C334.245 59.412 333.252 59.2513 332.322 58.8975C331.391 58.5438 330.542 58.0044 329.827 57.3121C329.111 56.6199 328.544 55.7893 328.159 54.8709C327.775 53.9525 327.581 52.9655 327.59 51.9699ZM335.29 56.4099C335.879 56.4292 336.466 56.3278 337.015 56.1118C337.563 55.8957 338.062 55.5697 338.48 55.1538C338.897 54.7379 339.226 54.2408 339.444 53.6933C339.663 53.1457 339.767 52.5592 339.75 51.9699C339.769 51.3767 339.667 50.7858 339.451 50.2333C339.234 49.6808 338.907 49.1782 338.49 48.7562C338.072 48.3341 337.573 48.0016 337.023 47.7787C336.473 47.5559 335.883 47.4474 335.29 47.4599C334.698 47.4472 334.11 47.5557 333.561 47.7789C333.013 48.0021 332.516 48.3352 332.101 48.7577C331.686 49.1801 331.361 49.683 331.148 50.2355C330.935 50.7879 330.837 51.3782 330.86 51.9699C330.842 52.557 330.944 53.1415 331.161 53.6877C331.377 54.2338 331.702 54.73 332.117 55.1458C332.532 55.5616 333.027 55.8882 333.573 56.1056C334.119 56.323 334.703 56.4265 335.29 56.4099Z" fill="#158285"/>
    <path d="M358.56 58.6499C356.444 59.0495 354.302 59.2902 352.15 59.3699C348.22 59.3699 345.85 57.7999 345.85 53.9899V44.9899H349.04C349.04 47.8299 349.04 50.54 349.04 53.39C349.04 55.63 350.22 56.25 352.28 56.25C353.287 56.2355 354.29 56.1351 355.28 55.95V44.95H358.5L358.56 58.6499Z" fill="#158285"/>
    <path d="M362.49 45.64C364.3 45.1777 366.162 44.9524 368.03 44.9699H370.59V47.9699H368.42C367.497 47.9353 366.574 48.0364 365.68 48.2699V59.09H362.49V45.64Z" fill="#158285"/>
    <path d="M372.21 51.8999C372.169 50.9043 372.337 49.9112 372.704 48.9847C373.071 48.0583 373.628 47.2192 374.34 46.5217C375.052 45.8242 375.902 45.2839 376.835 44.9356C377.769 44.5873 378.765 44.4389 379.76 44.4999C381.418 44.4708 383.061 44.8125 384.57 45.4999L383.32 48.2199C382.221 47.6864 381.012 47.4191 379.79 47.4399C379.202 47.405 378.614 47.4967 378.065 47.7089C377.516 47.9211 377.018 48.2488 376.607 48.6698C376.195 49.0908 375.879 49.5953 375.68 50.1491C375.48 50.7029 375.402 51.2932 375.45 51.8799C375.401 52.4684 375.48 53.0605 375.681 53.6159C375.882 54.1712 376.2 54.6767 376.613 55.0981C377.027 55.5194 377.527 55.8467 378.078 56.0575C378.63 56.2684 379.221 56.3579 379.81 56.3199C381.037 56.3596 382.254 56.0914 383.35 55.5399L384.59 58.2599C383.071 58.9643 381.414 59.323 379.74 59.3099C375.13 59.3499 372.24 56.4799 372.21 51.8999Z" fill="#158285"/>
    <path d="M399.87 53.07H389.05C389.204 54.0971 389.744 55.0269 390.559 55.6698C391.375 56.3127 392.405 56.6203 393.44 56.53C394.959 56.5561 396.46 56.1947 397.8 55.48L399.15 57.98C397.311 58.9132 395.272 59.3835 393.21 59.35C392.216 59.416 391.22 59.2693 390.287 58.9195C389.355 58.5697 388.508 58.025 387.803 57.3218C387.098 56.6185 386.551 55.7729 386.198 54.8413C385.846 53.9098 385.697 52.9139 385.76 51.92C385.76 47.45 388.68 44.46 393.04 44.46C397.15 44.46 399.87 47.31 399.87 51.57V53.07ZM389.08 50.35H396.75C396.55 48.43 395.13 47.26 392.97 47.26C392.05 47.1841 391.136 47.4613 390.414 48.0353C389.691 48.6093 389.214 49.4369 389.08 50.35Z" fill="#158285"/>
    <path d="M401.16 58.1501L402.01 55.63C403.522 56.2752 405.146 56.615 406.79 56.63C408.79 56.63 410.08 56.3401 410.08 55.1401C410.08 53.9401 409.61 53.84 407.24 53.22L405.97 52.9001C402.91 52.1201 401.54 50.75 401.54 48.46C401.54 45.97 403.63 44.46 407.14 44.46C409.069 44.4074 410.983 44.819 412.72 45.66L411.83 48.1701C410.481 47.5329 409.012 47.1919 407.52 47.1701C405.85 47.1701 404.85 47.49 404.85 48.46C404.85 49.43 405.67 49.71 407.59 50.21L408.59 50.4801C411.86 51.3301 413.2 52.72 413.2 54.96C413.2 57.86 411.2 59.35 407.07 59.35C405.037 59.38 403.021 58.9707 401.16 58.1501Z" fill="#158285"/>
    <path d="M432.11 49.9801V58.4001C430.078 58.9534 427.986 59.2556 425.88 59.3001C421.57 59.3001 419.2 57.6301 419.2 54.5101C419.2 51.5101 421.44 49.8501 425.56 49.8501C426.691 49.867 427.819 49.9505 428.94 50.1001V50.0201C428.94 48.3301 427.65 47.3301 425.08 47.3301C423.434 47.341 421.804 47.6528 420.27 48.2501L421.02 45.3101C422.552 44.7584 424.171 44.4873 425.8 44.5101C429.52 44.4901 432.11 46.1101 432.11 49.9801ZM425.9 56.4301C426.908 56.4241 427.913 56.3169 428.9 56.1101V52.7901C427.908 52.6258 426.905 52.5323 425.9 52.5101C423.54 52.5101 422.44 53.1401 422.44 54.5101C422.44 55.8801 423.54 56.4301 425.9 56.4301Z" fill="#158285"/>
    <path d="M436.07 45.2701C438.178 44.8864 440.31 44.6525 442.45 44.5701C445.89 44.5701 448.75 45.7901 448.75 49.9301C448.75 52.9301 448.75 56.0101 448.75 59.0501H445.53V50.5501C445.53 48.4301 444.34 47.6801 442.27 47.6801C441.263 47.6963 440.26 47.7967 439.27 47.9801V59.0501H436.08L436.07 45.2701Z" fill="#158285"/>
    <path d="M465.3 38.8401V58.5501C463.438 59.1592 461.498 59.496 459.54 59.5501C454.66 59.5501 451.72 56.7101 451.72 52.1001C451.72 47.4201 454.81 44.7001 459.54 44.7001C460.39 44.7105 461.239 44.7773 462.08 44.9001V38.9001L465.3 38.8401ZM462.08 56.4101V47.8801C461.215 47.6759 460.329 47.5686 459.44 47.5601C456.44 47.5601 454.81 49.4001 454.81 52.0401V52.0901C454.81 54.8901 456.6 56.6301 459.47 56.6301C460.345 56.636 461.218 56.5623 462.08 56.4101Z" fill="#158285"/>
    <path d="M181.55 89.3201L182.8 86.6601C184.506 87.7652 186.498 88.3458 188.53 88.3301C191.42 88.3301 193.04 87.1501 193.04 85.3301C193.04 83.8101 191.95 83.0401 189.04 82.1701L187.3 81.6401C183.71 80.6401 182.14 78.8501 182.14 75.8401V75.7901C182.14 72.5501 184.75 70.3801 189.14 70.3801C191.495 70.3277 193.818 70.9301 195.85 72.1201L194.59 74.7901C192.959 73.7531 191.063 73.208 189.13 73.2201C186.54 73.2201 185.32 74.2701 185.32 75.7101C185.32 77.4601 186.32 78.0801 188.46 78.7101C189 78.8901 189.73 79.0901 190.28 79.2401C194.54 80.4301 196.28 82.2401 196.28 85.1901V85.2401C196.28 88.9301 193.36 91.1201 188.68 91.1201C186.181 91.2071 183.708 90.5829 181.55 89.3201Z" fill="#158285"/>
    <path d="M198.7 83.79C198.686 82.7884 198.875 81.7944 199.257 80.8682C199.638 79.942 200.203 79.1028 200.919 78.4016C201.634 77.7004 202.484 77.1516 203.418 76.7887C204.351 76.4257 205.349 76.256 206.35 76.29C207.354 76.252 208.356 76.4185 209.294 76.7794C210.233 77.1402 211.088 77.688 211.808 78.3894C212.528 79.0907 213.098 79.9311 213.483 80.8595C213.869 81.7878 214.062 82.7848 214.05 83.79C214.05 88.07 210.76 91.16 206.35 91.19C205.356 91.2306 204.363 91.0689 203.433 90.7146C202.503 90.3603 201.655 89.8209 200.94 89.1289C200.224 88.437 199.657 87.607 199.272 86.6893C198.887 85.7715 198.692 84.7852 198.7 83.79ZM206.4 88.22C206.988 88.2392 207.574 88.1381 208.122 87.9227C208.67 87.7072 209.168 87.3821 209.586 86.9673C210.003 86.5524 210.332 86.0566 210.551 85.5102C210.77 84.9638 210.875 84.3784 210.86 83.79C210.881 83.1964 210.78 82.6049 210.563 82.0517C210.347 81.4985 210.02 80.9953 209.603 80.573C209.185 80.1507 208.686 79.8182 208.135 79.5958C207.584 79.3735 206.994 79.266 206.4 79.28C205.808 79.2658 205.218 79.3733 204.669 79.596C204.12 79.8187 203.622 80.1517 203.207 80.5745C202.792 80.9973 202.468 81.5008 202.255 82.0539C202.042 82.607 201.945 83.1979 201.97 83.79C201.952 84.3766 202.054 84.9607 202.27 85.5063C202.487 86.052 202.812 86.5476 203.227 86.9626C203.642 87.3776 204.138 87.7032 204.684 87.9195C205.229 88.1357 205.813 88.238 206.4 88.22Z" fill="#158285"/>
    <path d="M215.84 83.7899C215.89 79.3499 218.9 76.3899 223.39 76.3899C225.048 76.3564 226.693 76.6983 228.2 77.3899L226.95 80.0999C225.844 79.576 224.633 79.3125 223.41 79.3299C222.823 79.2948 222.235 79.3865 221.686 79.5988C221.137 79.811 220.641 80.1389 220.23 80.5601C219.819 80.9813 219.504 81.4859 219.306 82.0398C219.107 82.5937 219.03 83.1837 219.08 83.7699C219.033 84.3576 219.113 84.9486 219.314 85.5027C219.516 86.0569 219.834 86.5611 220.248 86.9813C220.661 87.4016 221.16 87.7279 221.711 87.9381C222.262 88.1484 222.852 88.2377 223.44 88.1999C224.665 88.2368 225.881 87.9724 226.98 87.4299L228.22 90.1399C226.699 90.85 225.038 91.2088 223.36 91.1899C218.75 91.1899 215.86 88.3299 215.84 83.7899Z" fill="#158285"/>
    <path d="M230.46 73.1C230.467 72.8498 230.525 72.6037 230.632 72.3769C230.738 72.1501 230.889 71.9475 231.076 71.7816C231.264 71.6157 231.483 71.49 231.721 71.4124C231.959 71.3347 232.211 71.3066 232.46 71.33C232.707 71.3116 232.955 71.3443 233.189 71.4261C233.423 71.508 233.637 71.6372 233.819 71.8057C234 71.9742 234.145 72.1783 234.244 72.4053C234.343 72.6323 234.394 72.8773 234.394 73.125C234.394 73.3727 234.343 73.6177 234.244 73.8447C234.145 74.0717 234 74.2759 233.819 74.4444C233.637 74.6128 233.423 74.742 233.189 74.8239C232.955 74.9057 232.707 74.9385 232.46 74.92C232.207 74.9437 231.951 74.9142 231.71 74.8335C231.468 74.7528 231.247 74.6227 231.058 74.4514C230.87 74.2801 230.72 74.0715 230.617 73.8388C230.514 73.6061 230.46 73.3545 230.46 73.1ZM230.84 76.81H234.05V90.89H230.84V76.81Z" fill="#158285"/>
    <path d="M249.88 81.7899V90.2099C247.849 90.7674 245.756 91.0697 243.65 91.1099C239.33 91.1099 236.97 89.4399 236.97 86.3299C236.97 83.3299 239.21 81.6699 243.32 81.6699C244.454 81.6865 245.586 81.77 246.71 81.9199V81.8499C246.71 80.1499 245.42 79.1599 242.85 79.1599C241.204 79.1701 239.574 79.4819 238.04 80.0799L238.79 77.1399C240.321 76.5825 241.941 76.3114 243.57 76.3399C247.28 76.3399 249.88 77.9599 249.88 81.7899ZM243.65 88.2799C244.658 88.2707 245.664 88.1601 246.65 87.9499V84.6099C245.657 84.4507 244.655 84.3605 243.65 84.3399C241.28 84.3399 240.19 84.9599 240.19 86.2799C240.19 87.5999 241.3 88.2799 243.65 88.2799Z" fill="#158285"/>
    <path d="M253.84 70.6799H257.05V90.8899H253.84V70.6799Z" fill="#158285"/>
    <path d="M283.04 80.6799C283.04 86.9299 278.73 90.8699 271.9 90.8699H265.97V70.6799H271.9C278.75 70.6799 283.04 74.5199 283.04 80.6799ZM279.57 80.6799C279.57 76.2199 276.93 73.6799 272.32 73.6799H269.16V87.9099H272.32C276.93 87.9099 279.55 85.2999 279.57 80.7099V80.6799Z" fill="#158285"/>
    <path d="M298.93 84.9101H288.12C288.272 85.939 288.81 86.8713 289.626 87.5163C290.442 88.1612 291.474 88.4702 292.51 88.3801C294.028 88.4001 295.527 88.0391 296.87 87.3301L298.21 89.8201C296.374 90.7521 294.339 91.2224 292.28 91.1901C291.287 91.256 290.292 91.1094 289.36 90.7603C288.428 90.4111 287.582 89.8673 286.877 89.1652C286.172 88.463 285.624 87.6186 285.272 86.6883C284.919 85.758 284.768 84.7631 284.83 83.7701C284.83 79.3101 287.75 76.3201 292.11 76.3201C296.22 76.3201 298.93 79.1601 298.93 83.4201V84.9101ZM288.14 82.2001H295.82C295.62 80.2801 294.2 79.1101 292.03 79.1101C291.11 79.0317 290.194 79.308 289.471 79.8825C288.748 80.4569 288.272 81.286 288.14 82.2001Z" fill="#158285"/>
    <path d="M314.08 76.79L309.3 90.87H305.11L300.23 76.79H303.65L307.24 87.96L310.72 76.79H314.08Z" fill="#158285"/>
    <path d="M329.46 84.9101H318.65C318.804 85.938 319.343 86.8688 320.159 87.5133C320.974 88.1579 322.004 88.4678 323.04 88.3801C324.558 88.4014 326.058 88.0403 327.4 87.3301L328.74 89.8201C326.904 90.7522 324.869 91.2224 322.81 91.1901C321.818 91.2572 320.823 91.1122 319.892 90.7649C318.96 90.4176 318.114 89.8758 317.408 89.1757C316.702 88.4756 316.154 87.6332 315.799 86.7046C315.444 85.776 315.291 84.7824 315.35 83.7901C315.35 79.3301 318.27 76.3401 322.63 76.3401C326.74 76.3401 329.46 79.1801 329.46 83.4401V84.9101ZM318.65 82.2001H326.32C326.12 80.2801 324.7 79.1101 322.53 79.1101C321.611 79.0344 320.699 79.312 319.978 79.8861C319.257 80.4603 318.782 81.2879 318.65 82.2001Z" fill="#158285"/>
    <path d="M332.37 70.6799H335.59V90.8899H332.37V70.6799Z" fill="#158285"/>
    <path d="M338.45 83.79C338.436 82.7884 338.625 81.7944 339.007 80.8682C339.388 79.942 339.953 79.1028 340.669 78.4016C341.384 77.7004 342.234 77.1516 343.168 76.7887C344.101 76.4257 345.099 76.256 346.1 76.29C347.104 76.2519 348.105 76.4185 349.043 76.7795C349.981 77.1404 350.835 77.6884 351.554 78.3899C352.274 79.0914 352.843 79.9319 353.227 80.8602C353.611 81.7885 353.803 82.7853 353.79 83.79C353.79 88.07 350.51 91.16 346.1 91.19C345.106 91.2306 344.113 91.0689 343.183 90.7146C342.253 90.3604 341.405 89.8209 340.69 89.129C339.974 88.437 339.407 87.607 339.022 86.6893C338.637 85.7715 338.442 84.7852 338.45 83.79ZM346.15 88.22C346.742 88.2463 347.333 88.1504 347.886 87.938C348.44 87.7256 348.943 87.4014 349.365 86.9857C349.788 86.5699 350.12 86.0716 350.341 85.5217C350.562 84.9719 350.667 84.3823 350.65 83.79C350.671 83.1964 350.57 82.6049 350.353 82.0517C350.137 81.4985 349.81 80.9953 349.393 80.573C348.975 80.1507 348.476 79.8182 347.925 79.5958C347.374 79.3735 346.784 79.266 346.19 79.28C345.589 79.2518 344.988 79.3489 344.427 79.5651C343.865 79.7814 343.355 80.1121 342.928 80.5362C342.501 80.9603 342.167 81.4686 341.947 82.0288C341.727 82.5889 341.626 83.1887 341.65 83.79C341.633 84.3771 341.737 84.9614 341.954 85.5071C342.172 86.0527 342.498 86.5482 342.914 86.9631C343.33 87.3779 343.826 87.7034 344.372 87.9196C344.918 88.1357 345.503 88.2379 346.09 88.22H346.15Z" fill="#158285"/>
    <path d="M370.17 83.89C370.17 88.5 367.23 91.35 362.35 91.35C361.495 91.3443 360.642 91.2674 359.8 91.12V96.38H356.59V77.21H357.21C358.885 76.7506 360.613 76.5086 362.35 76.49C367.08 76.49 370.17 79.21 370.17 83.89ZM367.08 83.89C367.08 81.25 365.44 79.41 362.45 79.41C361.557 79.4144 360.668 79.5218 359.8 79.73V88.25C360.664 88.4073 361.542 88.4809 362.42 88.47C365.29 88.47 367.08 86.73 367.08 83.94V83.89Z" fill="#158285"/>
    <path d="M393.59 81.79V90.88H390.38C390.38 88.04 390.38 85.23 390.38 82.38C390.38 80.64 389.78 79.52 387.47 79.52C386.537 79.5533 385.626 79.8179 384.82 80.29C384.934 80.8564 384.994 81.4323 385 82.01V90.88H381.75V82.38C381.75 80.29 380.58 79.52 378.75 79.52C377.895 79.5394 377.043 79.6467 376.21 79.84V90.84H373V77.11C374.945 76.7199 376.918 76.4859 378.9 76.41C380.407 76.3298 381.898 76.7519 383.14 77.61C384.491 76.8322 386.021 76.4187 387.58 76.41C391.22 76.41 393.59 77.91 393.59 81.79Z" fill="#158285"/>
    <path d="M410.65 84.9101H399.84C399.994 85.938 400.533 86.8688 401.349 87.5133C402.164 88.1579 403.194 88.4678 404.23 88.3801C405.748 88.4014 407.248 88.0403 408.59 87.3301L409.94 89.8201C408.101 90.7522 406.062 91.2224 404 91.1901C403.009 91.2557 402.015 91.1096 401.085 90.7616C400.155 90.4137 399.309 89.8717 398.605 89.1718C397.9 88.4718 397.352 87.63 396.998 86.7021C396.644 85.7742 396.491 84.7815 396.55 83.7901C396.55 79.3301 399.47 76.3401 403.83 76.3401C407.94 76.3401 410.66 79.1801 410.66 83.4401L410.65 84.9101ZM399.86 82.2001H407.53C407.33 80.2801 405.91 79.1101 403.75 79.1101C402.831 79.0344 401.919 79.312 401.198 79.8861C400.477 80.4603 400.002 81.2879 399.87 82.2001H399.86Z" fill="#158285"/>
    <path d="M413.7 77.1099C415.807 76.7257 417.939 76.4918 420.08 76.4099C423.51 76.4099 426.38 77.6399 426.38 81.7699C426.38 84.7699 426.38 87.8499 426.38 90.8899H423.16V82.3899C423.16 80.2799 421.96 79.5299 419.9 79.5299C418.893 79.5453 417.89 79.6456 416.9 79.8299V90.8899H413.71L413.7 77.1099Z" fill="#158285"/>
    <path d="M431.65 86.41V79.7H429.08V76.79H431.65V71.71H434.81V76.79H440.14V79.68H434.81V85.44C434.81 87.36 435.73 87.93 437.6 87.93H440.17V90.87H436.45C432.83 90.89 431.65 89.45 431.65 86.41Z" fill="#158285"/>
    <path d="M60.8299 33.49C61.4999 33.58 62.1599 33.7 62.8299 33.81C65.8582 28.2323 69.386 22.9406 73.3699 18C63.3117 10.1613 52.003 4.07588 39.9199 0L60.8299 33.49ZM114.83 75.96L80.3899 64.79L120.86 129.56C123.24 111.469 121.17 93.0701 114.83 75.96Z" fill="#158285"/>
    <path d="M58.3601 51.01C73.2801 27.13 92.7301 9.70001 120.86 0.0100098L80.3901 64.79L39.9101 129.56C36.3001 100.01 43.4401 74.89 58.3601 51.01Z" fill="#F7941D"/>
    <path d="M0 38.66L43.05 52.66C47.6179 50.1345 52.3106 47.8416 57.11 45.79C57.73 44.27 58.3967 42.75 59.11 41.23C60.28 38.68 61.53 36.23 62.85 33.81C41.8185 30.2648 20.2386 31.9301 0 38.66ZM117.72 52.66L80.39 64.79L160.77 90.91C149.464 75.0931 134.753 62.0151 117.72 52.64V52.66Z" fill="#2BB574"/>
    <path d="M0 90.89L45.94 75.9599C47.6129 71.4644 49.5393 67.0674 51.71 62.79C53.0417 56.985 54.8477 51.2993 57.11 45.79C34.34 55.54 15.27 69.79 0 90.89ZM99.94 33.4899L80.39 64.79L160.77 38.6799C141.191 32.153 120.341 30.374 99.94 33.4899Z" fill="#FCB614"/>
</svg>
