<svg width="80" height="80" viewBox="0 0 80 80" fill="none" xmlns="http://www.w3.org/2000/svg">
<g clip-path="url(#clip0_681_5834)">
<circle cx="40" cy="40" r="40" fill="#00858A"/>
<circle opacity="0.8" cx="40" cy="40" r="40" fill="white"/>
<path d="M42.1667 33.5167L44.3667 37.9167C44.6667 38.5167 45.4667 39.1167 46.1333 39.2167L50.1167 39.8833C52.6667 40.3167 53.2667 42.15 51.4333 43.9833L48.3333 47.1C47.8167 47.6167 47.5167 48.6333 47.6833 49.3667L48.5667 53.2167C49.2667 56.25 47.65 57.4333 44.9667 55.85L41.2333 53.6333C40.55 53.2333 39.45 53.2333 38.7667 53.6333L35.0167 55.8333C32.3333 57.4167 30.7167 56.2333 31.4167 53.2L32.3 49.35C32.4667 48.6333 32.1667 47.6167 31.65 47.0833L28.5667 44C26.7333 42.1667 27.3333 40.3167 29.8833 39.9L33.8667 39.2333C34.5333 39.1167 35.3333 38.5333 35.6333 37.9333L37.8333 33.5333C39.0167 31.1333 40.9833 31.1333 42.1667 33.5167Z" fill="#14415A"/>
<path d="M30 36.25C29.3167 36.25 28.75 35.6833 28.75 35V23.3333C28.75 22.65 29.3167 22.0833 30 22.0833C30.6833 22.0833 31.25 22.65 31.25 23.3333V35C31.25 35.6833 30.6833 36.25 30 36.25Z" fill="#14415A"/>
<path d="M50 36.25C49.3167 36.25 48.75 35.6833 48.75 35V23.3333C48.75 22.65 49.3167 22.0833 50 22.0833C50.6833 22.0833 51.25 22.65 51.25 23.3333V35C51.25 35.6833 50.6833 36.25 50 36.25Z" fill="#14415A"/>
<path d="M40 27.9167C39.3167 27.9167 38.75 27.35 38.75 26.6667V23.3333C38.75 22.65 39.3167 22.0833 40 22.0833C40.6833 22.0833 41.25 22.65 41.25 23.3333V26.6667C41.25 27.35 40.6833 27.9167 40 27.9167Z" fill="#14415A"/>
<g opacity="0.5" filter="url(#filter0_f_681_5834)">
<ellipse cx="17.5" cy="15" rx="15.5" ry="15" fill="#F6A609"/>
</g>
</g>
<defs>
<filter id="filter0_f_681_5834" x="-18" y="-20" width="71" height="70" filterUnits="userSpaceOnUse" color-interpolation-filters="sRGB">
<feFlood flood-opacity="0" result="BackgroundImageFix"/>
<feBlend mode="normal" in="SourceGraphic" in2="BackgroundImageFix" result="shape"/>
<feGaussianBlur stdDeviation="10" result="effect1_foregroundBlur_681_5834"/>
</filter>
<clipPath id="clip0_681_5834">
<rect width="80" height="80" rx="40" fill="white"/>
</clipPath>
</defs>
</svg>
