<svg width="80" height="80" viewBox="0 0 80 80" fill="none" xmlns="http://www.w3.org/2000/svg">
<g clip-path="url(#clip0_681_5849)">
<circle cx="40" cy="40" r="40" fill="#00858A"/>
<circle opacity="0.8" cx="40" cy="40" r="40" fill="white"/>
<path d="M55.15 31.6333C53.7333 30.0667 51.3667 29.2833 47.9333 29.2833H47.5333V29.2167C47.5333 26.4167 47.5333 22.95 41.2667 22.95H38.7333C32.4667 22.95 32.4667 26.4333 32.4667 29.2167V29.3H32.0667C28.6167 29.3 26.2667 30.0833 24.85 31.65C23.2 33.4833 23.25 35.95 23.4167 37.6333L23.4333 37.75L23.5775 39.2633C23.5917 39.4131 23.6726 39.5484 23.7983 39.6311C24.1645 39.8722 24.9506 40.3837 25.4 40.6333C25.6333 40.7833 25.8833 40.9167 26.1333 41.05C28.9833 42.6167 32.1167 43.6667 35.3 44.1833C35.45 45.75 36.1333 47.5833 39.7833 47.5833C43.4333 47.5833 44.15 45.7667 44.2667 44.15C47.6667 43.6 50.95 42.4167 53.9167 40.6833C54.0167 40.6333 54.0833 40.5833 54.1667 40.5333C54.8697 40.136 55.6008 39.6405 56.2571 39.1626C56.3697 39.0805 56.4421 38.9546 56.4575 38.8161L56.5 38.4333L56.5833 37.65C56.6 37.55 56.6 37.4667 56.6167 37.35C56.75 35.6667 56.7167 33.3667 55.15 31.6333ZM41.8167 43.05C41.8167 44.8167 41.8167 45.0833 39.7667 45.0833C37.7167 45.0833 37.7167 44.7667 37.7167 43.0667V40.9667H41.8167V43.05ZM34.85 29.2833V29.2167C34.85 26.3833 34.85 25.3333 38.7333 25.3333H41.2667C45.15 25.3333 45.15 26.4 45.15 29.2167V29.3H34.85V29.2833Z" fill="#14415A"/>
<path d="M55.33 42.6311C55.6826 42.4609 56.0877 42.7416 56.0523 43.1316L55.4 50.3167C55.05 53.65 53.6833 57.05 46.35 57.05H33.65C26.3167 57.05 24.95 53.65 24.6 50.3334L23.9793 43.5055C23.9442 43.1201 24.3413 42.8403 24.6931 43.0017C26.4308 43.7987 30.6067 45.6583 32.9686 46.2387C33.1335 46.2793 33.2681 46.3968 33.3352 46.5529C34.311 48.8233 36.5352 50.0334 39.7833 50.0334C42.9992 50.0334 45.2533 48.7768 46.2313 46.5031C46.2985 46.3469 46.4328 46.2295 46.5979 46.1889C49.1011 45.5728 53.523 43.5032 55.33 42.6311Z" fill="#14415A"/>
<g opacity="0.5" filter="url(#filter0_f_681_5849)">
<ellipse cx="17.5" cy="15" rx="15.5" ry="15" fill="#F6A609"/>
</g>
</g>
<defs>
<filter id="filter0_f_681_5849" x="-18" y="-20" width="71" height="70" filterUnits="userSpaceOnUse" color-interpolation-filters="sRGB">
<feFlood flood-opacity="0" result="BackgroundImageFix"/>
<feBlend mode="normal" in="SourceGraphic" in2="BackgroundImageFix" result="shape"/>
<feGaussianBlur stdDeviation="10" result="effect1_foregroundBlur_681_5849"/>
</filter>
<clipPath id="clip0_681_5849">
<rect width="80" height="80" rx="40" fill="white"/>
</clipPath>
</defs>
</svg>
