<svg xmlns="http://www.w3.org/2000/svg" width="496.804" height="245.082" viewBox="0 0 496.804 245.082">
    <g id="Group_19667" data-name="Group 19667" transform="translate(-1084.458 -3425.72)">
        <g id="Group_19667-2" data-name="Group 19667" transform="translate(1084.458 3425.72)">
            <path id="Path_4189" data-name="Path 4189"
                  d="M11745.664,3297.145a12.787,12.787,0,0,1-4.664,3.518,13.589,13.589,0,0,1-5.125,1.02h-9.781a26.04,26.04,0,0,1-15.266-3.967,13.492,13.492,0,0,1-5.7-11.889v-137.27a2.374,2.374,0,0,0-2.367-2.367h-14.906a2.428,2.428,0,0,0-2.359,2.367v166.232a30.285,30.285,0,0,1-9.531,25,38.352,38.352,0,0,1-24.484,7.674,52.613,52.613,0,0,1-12.414-1.6,36.575,36.575,0,0,1-11.633-5.5,28.542,28.542,0,0,1-8.758-10.488,36.9,36.9,0,0,1-3.391-16.686,53.064,53.064,0,0,1,3.836-20.072,104.866,104.866,0,0,1,8.047-16.107,1.886,1.886,0,0,0,.4-1.686,1.86,1.86,0,0,0-1.1-1.324l-12.781-7.033c-1.609-.9-2.687-.832-3.258,0a86.423,86.423,0,0,0-10.625,21.354,76.794,76.794,0,0,0-4.531,26.469,54.8,54.8,0,0,0,3.961,21.8,44.858,44.858,0,0,0,11.055,15.988,46.981,46.981,0,0,0,17.273,9.906,72.066,72.066,0,0,0,22.766,3.389,56.416,56.416,0,0,0,40.648-13.557,49.648,49.648,0,0,0,14.148-37.527v-2.812a23.323,23.323,0,0,0,18.648,7.479h10.43a56.477,56.477,0,0,0,14.258-1.982,20.5,20.5,0,0,0,8.711-4.793.811.811,0,0,0,0-1.152,35.777,35.777,0,0,1-8.711-16.561.754.754,0,0,0-.734-.551.744.744,0,0,0-.727.555,15.792,15.792,0,0,1-1.352,2.176Z"
                  transform="translate(-11595.258 -3146.049)" fill="#2d2e80"/>
            <path id="Path_4190" data-name="Path 4190"
                  d="M11839.781,3224.635H11824.9a2.11,2.11,0,0,0-2.391,2.3l.016,62.531a13.779,13.779,0,0,1-2.633,9.652,11.717,11.717,0,0,1-8.562,2.682l-18.664,0a28.194,28.194,0,0,1-14.758-3.453,12.7,12.7,0,0,1-6.391-10.742v-21.482c0-14.322-3.781-24.807-11.2-31.457a41.671,41.671,0,0,0-28.969-10.035l-20.719,0,41.945-49.227a2.467,2.467,0,0,0,.242-1.82,2.35,2.35,0,0,0-1.141-1.441l-11.18-9.334a2.244,2.244,0,0,0-3.07.705l-51.156,60.158-1.266,1.533a3.586,3.586,0,0,0-.82,2.24l-.023,12.789a2.046,2.046,0,0,0,.633,1.723,2.076,2.076,0,0,0,1.734.576h37.539q26.59,0,26.6,23.592v14.453a63.482,63.482,0,0,1-.711,10.035,12.782,12.782,0,0,1-2.82,6.395,11.425,11.425,0,0,1-6.016,3.518,43.046,43.046,0,0,1-10.539,1.018l-60.812,0a11.554,11.554,0,0,1-8.5-2.686,13.462,13.462,0,0,1-2.687-9.654V3148.555a2.056,2.056,0,0,0-.594-1.771,2.1,2.1,0,0,0-1.773-.594h-14.883a2.114,2.114,0,0,0-2.383,2.365v141.938a33.2,33.2,0,0,0,6.4,22.311,26.823,26.823,0,0,0,20.977,7.1l71.531,0a46.31,46.31,0,0,0,17.984-2.941,21.831,21.831,0,0,0,10.992-10.357,18.461,18.461,0,0,0,8.953,9.91,30.048,30.048,0,0,0,14.125,3.389h24.492a26.716,26.716,0,0,0,20.953-7.1,33.036,33.036,0,0,0,6.414-22.309v-63.939A2.072,2.072,0,0,0,11839.781,3224.635Z"
                  transform="translate(-11360.108 -3146.17)" fill="#2d2e80"/>
            <path id="Path_4191" data-name="Path 4191"
                  d="M11714.164,3254.264v-63.937a31.964,31.964,0,0,0-31.969-31.965h-61.875v63.934a31.96,31.96,0,0,0,7.617,20.719c.953,1.084,1.852,1.979,2.742,2.875a31.983,31.983,0,0,0,21.484,8.311Zm-73.953-31.969v-43.8h42.063a12.083,12.083,0,0,1,12.078,12.02v43.8h-42.141a11.993,11.993,0,0,1-11.8-11.957Z"
                  transform="translate(-11460.016 -3080.408)" fill="#2d2e80"/>
            <path id="Path_4192" data-name="Path 4192"
                  d="M11664.414,3176.912h-33.2a.648.648,0,0,0-.5.186.587.587,0,0,0-.18.516l-.008,4.416c0,.508,0,.7.688.7h12.8a.4.4,0,0,1,.344.105.355.355,0,0,1,.1.342v40.729c0,.514,0,.7.641.7h4.859c.508,0,.7,0,.7-.7v-40.729a.44.44,0,0,1,.453-.447h12.789a.629.629,0,0,0,.523-.184.734.734,0,0,0,.188-.518v-4.543a.652.652,0,0,0-.187-.574Z"
                  transform="translate(-11405.004 -2980.361)" fill="#2d2e80"/>
            <path id="Path_4193" data-name="Path 4193"
                  d="M11649.336,3179.1a20.978,20.978,0,0,0-6.406.955,14.2,14.2,0,0,0-4.8,2.369.815.815,0,0,0,.008.957l1.852,3.26c0,.385.57.385,1.031,0a13.653,13.653,0,0,1,3.3-1.723,14.72,14.72,0,0,1,4.8-.707,9.783,9.783,0,0,1,6.391,1.6,6.35,6.35,0,0,1,1.672,5.049l-.008,2.43s0,.447-.375.447h-7.672a16.4,16.4,0,0,0-9.672,2.49,9.066,9.066,0,0,0-3.453,7.865,9.774,9.774,0,0,0,.906,4.412,9.085,9.085,0,0,0,2.359,3.2,9.561,9.561,0,0,0,3.586,1.855,14.256,14.256,0,0,0,4.484.639,13.62,13.62,0,0,0,6.391-1.279,8.393,8.393,0,0,0,3.641-3.129h-.008v2.938c0,.447,0,.705.641.705h4.164a.643.643,0,0,0,.711-.705l-.008-22.248a11.391,11.391,0,0,0-3-8.822A15.522,15.522,0,0,0,11649.336,3179.1Zm7.477,23.525a5.647,5.647,0,0,1-2.242,4.861,9.86,9.86,0,0,1-6.383,1.725,8.7,8.7,0,0,1-5.258-1.344,4.455,4.455,0,0,1-1.773-3.9,4.679,4.679,0,0,1,1.977-4.221,11.946,11.946,0,0,1,6.383-1.281h6.773a.394.394,0,0,1,.375.447Z"
                  transform="translate(-11375.528 -2969.178)" fill="#2d2e80"/>
            <path id="Path_4194" data-name="Path 4194"
                  d="M11657.555,3203.811l10.344-11.953a.544.544,0,0,0,0-.514h-5.609a1.657,1.657,0,0,0-1.273.641l-13.242,15.6V3177.6a.643.643,0,0,0-.711-.7h-4.484a.589.589,0,0,0-.508.18.626.626,0,0,0-.2.523l.008,46.287c0,.512,0,.7.7.7h4.477a.638.638,0,0,0,.523-.182.627.627,0,0,0,.2-.518v-8.826l5.813-6.775,9.531,15.6a1.3,1.3,0,0,0,1.156.7h5.609a.647.647,0,0,0,0-.512Z"
                  transform="translate(-11343.798 -2980.473)" fill="#2d2e80"/>
            <path id="Path_4195" data-name="Path 4195"
                  d="M11660.719,3179.1a21.161,21.161,0,0,0-6.406.957,13.736,13.736,0,0,0-4.766,2.365.729.729,0,0,0,0,.963l1.906,3.26c0,.381.563.381.961,0a14,14,0,0,1,3.4-1.729,14.431,14.431,0,0,1,4.789-.7,9.463,9.463,0,0,1,6.391,1.6,6.337,6.337,0,0,1,1.711,5.049v2.428a.344.344,0,0,1-.094.342.376.376,0,0,1-.336.107h-7.617a16.21,16.21,0,0,0-9.656,2.49,8.95,8.95,0,0,0-3.508,7.865,10.434,10.434,0,0,0,.875,4.41,9.022,9.022,0,0,0,5.945,5.055,14.712,14.712,0,0,0,4.477.637,14.189,14.189,0,0,0,6.414-1.277,9.372,9.372,0,0,0,3.633-3.135v2.941a.65.65,0,0,0,.7.705h4.172a.645.645,0,0,0,.711-.705v-22.248a11.166,11.166,0,0,0-3.07-8.822A15.566,15.566,0,0,0,11660.719,3179.1Zm7.555,23.527a5.847,5.847,0,0,1-2.242,4.859,10.155,10.155,0,0,1-6.4,1.723,8.609,8.609,0,0,1-5.172-1.34,4.47,4.47,0,0,1-1.844-3.9,4.639,4.639,0,0,1,1.984-4.215,12.224,12.224,0,0,1,6.375-1.279h6.4c.32,0,.445,0,.445.447Z"
                  transform="translate(-11313.673 -2969.184)" fill="#2d2e80"/>
            <path id="Path_4196" data-name="Path 4196"
                  d="M11690.148,3188.084a12.66,12.66,0,0,0-4.844-6.715,16.017,16.017,0,0,0-16.758,0,12.321,12.321,0,0,0-4.914,6.717,21.631,21.631,0,0,0-.828,3.641,32.547,32.547,0,0,0-.008,4.859,33.628,33.628,0,0,0,0,4.859,21.482,21.482,0,0,0,.828,3.646,12.747,12.747,0,0,0,4.914,6.717,16.031,16.031,0,0,0,16.766,0,12.683,12.683,0,0,0,4.844-6.715,19.462,19.462,0,0,0,.828-3.645,34.784,34.784,0,0,0,.023-4.859,36.057,36.057,0,0,0-.016-4.861,20.168,20.168,0,0,0-.836-3.639Zm-5.047,12.467a13.487,13.487,0,0,1-.633,2.875,7.5,7.5,0,0,1-2.812,3.9,8.137,8.137,0,0,1-4.734,1.34,8.317,8.317,0,0,1-4.789-1.34,7.688,7.688,0,0,1-2.836-3.9,20.1,20.1,0,0,1-.562-2.875q-.094-1.983,0-3.967a30.549,30.549,0,0,1,0-3.967,25.558,25.558,0,0,1,.57-2.871,8.155,8.155,0,0,1,2.813-3.9,8.3,8.3,0,0,1,4.8-1.344,8.151,8.151,0,0,1,4.734,1.34,7.68,7.68,0,0,1,2.82,3.9,13.964,13.964,0,0,1,.625,2.875v3.967c0,1.66-.18,2.943-.25,3.967Z"
                  transform="translate(-11231.392 -2969.09)" fill="#2d2e80"/>
            <path id="Path_4197" data-name="Path 4197"
                  d="M11679.547,3219.607h-1.352a3.3,3.3,0,0,1-2.555-.832,4.046,4.046,0,0,1-.828-2.875v-38.363c0-.514,0-.7-.711-.7h-4.469a.627.627,0,0,0-.523.184.645.645,0,0,0-.187.52V3215.9a9.851,9.851,0,0,0,1.93,6.713,8.084,8.084,0,0,0,6.383,2.109h2.367a.622.622,0,0,0,.516-.184.649.649,0,0,0,.2-.52v-4.029a.643.643,0,0,0-.758-.385Z"
                  transform="translate(-11198.088 -2980.795)" fill="#2d2e80"/>
            <path id="Path_4198" data-name="Path 4198"
                  d="M11696.1,3180.291a13.634,13.634,0,0,0-6.391-1.279h-3.312a12.437,12.437,0,0,0-5.953,1.344,11.123,11.123,0,0,0-2.758,2.3,10.792,10.792,0,0,0-2.812-2.3,12.4,12.4,0,0,0-5.953-1.348l-3.312,0a13.663,13.663,0,0,0-6.391,1.285,9.5,9.5,0,0,0-2.8,2.17,13.31,13.31,0,0,0-3.078,9.205v21.035a.74.74,0,0,0,.18.521.644.644,0,0,0,.523.184h4.531c.461,0,.648,0,.648-.705v-20.588h0a7.613,7.613,0,0,1,0-1.789.552.552,0,0,1,0-.318,6.7,6.7,0,0,1,1.789-3.26,7.34,7.34,0,0,1,5.445-2.178,7.553,7.553,0,0,1,5.469,2.178,7.9,7.9,0,0,1,1.875,3.389v1.979h0v20.588a.629.629,0,0,0,.188.521.6.6,0,0,0,.508.184h4.547a.675.675,0,0,0,.531-.186.729.729,0,0,0,.172-.52v-20.588h0v-1.727a.447.447,0,0,1,0-.318,6.787,6.787,0,0,1,1.844-3.326,7.388,7.388,0,0,1,5.438-2.174,7.612,7.612,0,0,1,5.516,2.178,8.3,8.3,0,0,1,1.773,3.262c.023,0,.023,0,.023.318.023.592.023,1.2,0,1.789h0v20.588a.6.6,0,0,0,.164.52.663.663,0,0,0,.531.184h4.477a.59.59,0,0,0,.508-.184.621.621,0,0,0,.188-.52V3191.8a13.265,13.265,0,0,0-3.07-9.207A8.461,8.461,0,0,0,11696.1,3180.291Z"
                  transform="translate(-11282.092 -2969.097)" fill="#2d2e80"/>
        </g>
        <rect id="Rectangle_1539" data-name="Rectangle 1539" width="20.523" height="21.674" rx="0.36"
              transform="translate(1560.738 3456.872)" fill="#2d2e80"/>
        <rect id="Rectangle_1540" data-name="Rectangle 1540" width="20.523" height="21.674" rx="0.36"
              transform="translate(1532.242 3456.872)" fill="#2d2e80"/>
    </g>
</svg>
